<?xml version="1.0" standalone="no"?>
<!DOCTYPE svg PUBLIC "-//W3C//DTD SVG 20010904//EN"
 "http://www.w3.org/TR/2001/REC-SVG-20010904/DTD/svg10.dtd">
<svg version="1.0" xmlns="http://www.w3.org/2000/svg"
 width="2928.000000pt" height="3000.000000pt" viewBox="0 0 2928.000000 3000.000000"
 preserveAspectRatio="xMidYMid meet">

<g transform="translate(0.000000,3000.000000) scale(0.100000,-0.100000)"
fill="#000000" stroke="none">
<path d="M14620 29993 c-1968 -48 -3895 -482 -5723 -1289 -216 -96 -729 -346
-952 -466 -1686 -905 -3168 -2105 -4416 -3578 -529 -625 -1058 -1374 -1477
-2091 -244 -416 -503 -911 -487 -927 14 -14 5066 -3822 5070 -3822 1 0 6 12
10 28 3 15 42 123 86 239 675 1805 1929 3347 3558 4378 482 305 1061 594 1591
795 1785 676 3760 751 5600 215 1007 -294 1976 -779 2815 -1409 l179 -135 42
37 c76 66 4374 4295 4374 4303 0 10 -211 192 -431 371 -2233 1817 -4926 2946
-7779 3262 -681 76 -1378 106 -2060 89z"/>
<path d="M14840 14810 l0 -2859 48 4 c26 3 1864 7 4085 10 3682 5 4037 4 4037
-11 0 -58 -181 -546 -299 -807 -573 -1265 -1509 -2444 -2699 -3398 l-172 -138
82 -65 c366 -285 4954 -3826 4958 -3826 9 0 228 199 399 363 2342 2248 3683
5443 3946 9402 31 480 37 638 42 1260 8 983 -25 1544 -143 2380 -24 173 -83
538 -87 541 -1 1 -981 -3 -2176 -9 -1640 -8 -2176 -7 -2179 1 -3 9 -1221 12
-4923 12 l-4919 0 0 -2860z"/>
</g>
</svg>
